#!OML:ASF I:\Actors\actors\Patient Classification 2\Patient 1\Session 1\actor1.ASF
:FULLY-SPECIFIED
:DEGREES
245
root -0.55321 18.6437 5.9949 7.43228 3.71398 -3.9197
lowerback 19.9863 -2.0321 -0.832374
upperback -0.176592 -2.92038 -0.369821
thorax -11.4215 -1.32808 0.921472
lowerneck -20.6553 -4.18428 -3.66151
upperneck -1.71865 -5.22579 10.7066
head 3.14423 -2.05828 3.47128
rclavicle 3.00165e-014 -1.90833e-014
rhumerus -7.84917 47.0665 -75.1587
rradius 86.7251
rwrist 1.52284
rhand 10.0691 -44.0666
rfingers 7.12502
rthumb 35.1919 -70.5777
lclavicle 3.00165e-014 -1.90833e-014
lhumerus -22.93 -41.7107 91.1788
lradius 62.7905
lwrist -1.85754
lhand 19.0711 -1.38607
lfingers 7.12502
lthumb 43.6688 22.6192
rfemur -4.92121 -2.47322 18.3343
rtibia 12.8166
rfoot -20.5582 -11.6811
rtoes -13.2744
lfemur -19.5645 -0.923419 -10.3846
ltibia 33.2762
lfoot -19.879 6.07059
ltoes -55.5276
246
root -0.549467 18.6435 6.05707 6.60091 3.72115 -3.80325
lowerback 19.7385 -1.94631 -1.11843
upperback -0.681874 -2.87506 -0.312148
thorax -11.8373 -1.28143 1.13733
lowerneck -21.2517 -4.3523 -3.85926
upperneck -1.17566 -5.43333 10.7179
head 3.41784 -2.12478 3.47977
rclavicle -3.18055e-015 7.95139e-016
rhumerus -6.73032 46.6657 -73.1818
rradius 88.3254
rwrist 0.520929
rhand 10.8145 -44.9323
rfingers 7.12502
rthumb 35.8984 -71.2737
lclavicle -3.18055e-015 7.95139e-016
lhumerus -25.9466 -42.8573 93.1365
lradius 65.006
lwrist -0.740768
lhand 20.1574 0.0405421
lfingers 7.12502
lthumb 44.6817 23.6644
rfemur -3.10229 -2.53139 18.1525
rtibia 11.4837
rfoot -20.167 -11.9267
rtoes -13.6986
lfemur -18.0877 -0.947589 -10.5451
ltibia 32.6546
lfoot -19.9526 5.92409
ltoes -55.6553
247
root -0.518157 18.641 6.09695 5.86501 3.70909 -3.71089
lowerback 19.5345 -1.91485 -0.938511
upperback -1.17671 -2.80312 -0.342735
thorax -12.2972 -1.25334 0.984479
lowerneck -21.8948 -4.50554 -4.03446
upperneck -0.56388 -5.62289 10.6525
head 3.7149 -2.18366 3.46085
rclavicle -1.37161e-014 7.95139e-015
rhumerus -5.73374 45.8615 -71.4573
rradius 89.6737
rwrist 0.074594
rhand 11.1545 -45.4372
rfingers 7.12502
rthumb 36.2205 -71.6993
lclavicle -1.37161e-014 7.95139e-015
lhumerus -28.642 -43.865 94.9959
lradius 67.0283
lwrist -0.0754098
lhand 20.4331 0.872628
lfingers 7.12502
lthumb 44.9384 24.3964
rfemur -1.45691 -2.88825 17.8663
rtibia 10.0084
rfoot -19.3692 -12.1248
rtoes -14.3107
lfemur -16.8736 -1.33427 -10.7969
ltibia 32.1356
lfoot -20.0848 6.18141
ltoes -55.6614
248
root -0.489183 18.6395 6.13502 5.16362 3.86789 -3.63641
lowerback 19.2063 -1.98686 -0.662123
upperback -1.59252 -2.84372 -0.378481
thorax -12.5995 -1.28869 0.797337
lowerneck -22.3831 -4.57943 -4.09792
upperneck -0.157865 -5.70762 10.4366
head 3.90885 -2.21086 3.38888
rclavicle 4.07509e-014 -7.95139e-016
rhumerus -4.80898 44.8917 -69.9842
rradius 90.8592
rwrist 0.0903438
rhand 10.906 -45.4464
rfingers 7.12502
rthumb 35.9851 -71.7666
lclavicle 4.07509e-014 -7.95139e-016
lhumerus -30.8819 -44.5397 96.5619
lradius 68.742
lwrist 0.332914
lhand 20.522 1.34348
lfingers 7.12502
lthumb 45.021 24.8348
rfemur 0.223919 -3.01075 17.6333
rtibia 8.43593
rfoot -18.9488 -12.5846
rtoes -14.2855
lfemur -15.8071 -1.94832 -11.0189
ltibia 31.7437
lfoot -20.3678 6.40169
ltoes -55.7302
249
root -0.468663 18.6385 6.17315 4.50005 4.20766 -3.60067
lowerback 18.7124 -2.14284 -0.379149
upperback -1.90136 -2.98668 -0.366484
thorax -12.6796 -1.37472 0.680267
lowerneck -22.7342 -4.61731 -4.31234
upperneck -0.0100203 -5.69481 10.3528
head 4.00596 -2.19495 3.39526
rclavicle -4.27387e-015 -1.03368e-014
rhumerus -3.92911 43.3859 -69.0533
rradius 91.7072
rwrist 0.828194
rhand 10.5922 -45.1436
rfingers 7.12502
rthumb 35.6878 -71.5362
lclavicle -4.27387e-015 -1.03368e-014
lhumerus -32.557 -44.8485 97.7483
lradius 70.2995
lwrist 0.885512
lhand 21.551 2.40368
lfingers 7.12502
lthumb 45.9771 25.5077
rfemur 2.057 -3.3028 17.506
rtibia 6.56003
rfoot -18.5046 -13.0455
rtoes -13.8459
lfemur -14.8305 -2.63811 -11.164
ltibia 31.3684
lfoot -20.6963 6.43506
ltoes -55.8516
